<svg width="232" height="40" viewBox="0 0 232 40" fill="#BABABA" xmlns="http://www.w3.org/2000/svg">
<path d="M53.0532 20.2407C53.0532 12.4339 58.1163 7 65.2868 7H65.7999C70.3499 7 73.853 9.36614 75.7072 12.6746C75.8167 12.9085 75.762 13.0873 75.5772 13.2042L72.4436 14.7381C72.2588 14.855 71.9646 14.855 71.8552 14.6212C70.5073 12.3169 68.5915 11.0788 65.6836 11.0788H65.1705C60.6274 11.0788 57.4732 14.7381 57.4732 20.0619C57.4732 25.3788 60.5658 28.928 65.1705 28.928H65.6836C68.6462 28.928 70.3978 27.9238 71.6909 26.328C71.8552 26.1492 72.0946 26.0942 72.2588 26.2111L75.4609 27.8069C75.5704 27.8688 75.6457 27.9238 75.6457 28.0407C75.6457 28.0837 75.6094 28.1532 75.5689 28.2307C75.5511 28.2649 75.5324 28.3007 75.5157 28.3365C73.5999 31.2323 70.042 33.0069 65.7315 33.0069H65.2184C57.8769 33 53.0532 27.9169 53.0532 20.2407ZM18.5693 11.0859V7.79806C18.5693 7.5642 18.3846 7.44727 18.2204 7.44727H0.348944C0.184735 7.44727 0 7.5642 0 7.79806V31.9822C0 32.216 0.184735 32.333 0.348944 32.3399H3.85207C4.09154 32.3399 4.20101 32.2229 4.20101 31.9891V22.1256H15.7709C15.9351 22.1256 16.1199 21.9467 16.1199 21.7129V18.4801C16.1199 18.2462 15.9351 18.1293 15.7709 18.1293H4.20101V11.4367H18.2204C18.3846 11.4367 18.5693 11.2647 18.5693 11.0859ZM35.387 11.3817C36.8444 14.6076 38.2949 18.2462 39.5675 21.8298H30.3786C31.6718 18.2462 33.1223 14.6076 34.5796 11.3817H35.387ZM43.1254 32.333H46.9569C47.1964 32.333 47.3058 32.216 47.2511 31.9203C45.0411 23.9965 41.668 15.2541 38.2333 7.91499C38.0486 7.5642 37.8844 7.44727 37.5354 7.44727H32.527C32.2328 7.44727 32.0139 7.5642 31.8291 7.91499C28.4629 15.2541 25.0897 23.9965 22.825 31.9203C22.7703 32.216 22.9345 32.333 23.174 32.333H26.8413C27.0808 32.333 27.245 32.216 27.245 32.0372C27.7581 29.9875 28.4081 27.8139 29.106 25.6404H40.8606C41.5585 27.8139 42.188 29.9806 42.7217 32.0372C42.7764 32.216 42.8859 32.333 43.1254 32.333ZM103.677 31.9822V28.6944C103.677 28.5224 103.568 28.3436 103.321 28.3436H88.6383V21.8298H100.352C100.516 21.8298 100.701 21.7129 100.701 21.479V18.2462C100.701 18.0743 100.516 17.8954 100.352 17.8954H88.6383V11.4367H103.027C103.212 11.4367 103.376 11.2647 103.376 11.0859V7.79806C103.376 7.5642 103.212 7.44727 103.027 7.44727H84.793C84.5536 7.44727 84.4441 7.5642 84.4441 7.79806V31.9822C84.4441 32.216 84.5536 32.333 84.793 32.333H103.328C103.568 32.333 103.677 32.216 103.677 31.9822ZM131.196 25.1108C131.196 22.8203 129.684 21.761 126.318 21.761H118.046V28.4536H126.318C129.739 28.4605 131.196 27.4631 131.196 25.1108ZM125.134 11.3198H118.039V18.0123H125.134C128.336 18.0123 129.794 16.9531 129.794 14.6626C129.794 12.3721 128.343 11.3198 125.134 11.3198ZM135.507 25.5235C135.507 29.8705 132.188 32.333 126.318 32.333H114.194C113.954 32.333 113.845 32.216 113.845 31.9822V7.79806C113.845 7.5642 113.954 7.44727 114.194 7.44727H125.264C130.902 7.44727 134.049 9.73774 134.049 13.906C134.049 16.6092 132.647 18.425 129.848 19.2436C133.81 20.0621 135.507 22.4695 135.507 25.5235ZM164.202 20C164.202 25.3788 161.075 28.9212 156.026 28.9212H155.492C150.463 28.9212 147.261 25.3788 147.261 20C147.261 14.6212 150.463 11.0788 155.492 11.0788H156.026C161.068 11.0788 164.202 14.6212 164.202 20ZM155.492 7C147.74 7 142.8 12.4339 142.8 20C142.8 27.5661 147.74 33 155.492 33H156.026C163.723 33 168.663 27.5661 168.663 20C168.663 12.4339 163.723 7 156.026 7H155.492ZM188.929 28.9212C193.992 28.9212 197.126 25.3788 197.126 20C197.126 14.6212 193.992 11.0788 188.929 11.0788H188.416C183.353 11.0788 180.164 14.6212 180.164 20C180.164 25.3788 183.353 28.9212 188.416 28.9212H188.929ZM175.738 20C175.738 12.4339 180.616 7 188.409 7H188.922C196.661 7 201.594 12.4339 201.594 20C201.594 27.5661 196.654 33 188.922 33H188.409C180.623 33 175.738 27.5661 175.738 20ZM227.189 32.3326H231.705C231.999 32.3326 232.109 32.0987 231.863 31.8511C228.161 27.3871 224.049 23.2257 219.65 19.5252C223.132 16.5331 226.888 12.6606 230.645 7.96274C230.72 7.8458 230.775 7.72199 230.775 7.66697C230.775 7.55004 230.645 7.43311 230.426 7.43311H226.136C225.972 7.43311 225.787 7.49501 225.623 7.72887C223.084 11.0786 219.896 14.4834 216.468 17.5924H214.443V7.79078C214.443 7.55691 214.279 7.43998 214.039 7.43998H210.632C210.392 7.43998 210.228 7.55691 210.228 7.79078V31.9749C210.228 32.2088 210.392 32.3257 210.632 32.3257H214.039C214.279 32.3257 214.443 32.2088 214.443 31.9749V21.7056H216.468C219.656 24.4638 223.433 28.2193 226.546 32.0368C226.786 32.2707 226.895 32.3326 227.189 32.3326Z"/>
</svg>
