<svg width="109" height="40" viewBox="0 0 109 40" fill="#BABABA" xmlns="http://www.w3.org/2000/svg">
<path d="M0 40V20V0H54.5H109V20V40H54.5H0ZM107.179 38.1991V20V1.80095H54.5H1.82146L1.84063 19.9716L1.86939 38.1517L54.5288 38.1801L107.179 38.1991ZM9.39502 10.218V9.70613V9.19429H13.0379H16.6809V9.70613C16.6809 9.755 16.6816 9.79918 16.6823 9.83922C16.6849 9.98615 16.6865 10.0774 16.6451 10.1403C16.5772 10.2434 16.3937 10.2703 15.9094 10.3414C15.8325 10.3527 15.748 10.3651 15.6551 10.3791L15.2429 10.4455V14.5118V18.5782H20.0362H24.8295V14.5118V10.4455L24.4748 10.3886C24.4061 10.3789 24.3185 10.367 24.2229 10.354C24.0383 10.3289 23.8242 10.2998 23.6599 10.2749L23.1998 10.218V9.70613V9.19429H26.9386H30.6773V9.70613V10.218L30.2939 10.2749C30.1884 10.2891 30.0494 10.3104 29.9104 10.3317L29.9104 10.3317C29.7714 10.3531 29.6324 10.3744 29.5269 10.3886L29.1435 10.4455V19.9526C29.1435 27.763 29.1627 29.4692 29.2681 29.5071C29.3448 29.5355 29.6899 29.5829 30.035 29.6208L30.6773 29.6872V30.2464V30.8057H26.9386H23.1998V30.2464V29.6967L23.8804 29.6303C24.2543 29.5924 24.6186 29.5355 24.6953 29.5071C24.8103 29.4692 24.8295 28.7488 24.8295 25.1564V20.8531H20.0362H15.2429L15.262 25.1848L15.2908 29.526L15.9906 29.6019L16.6809 29.6872V30.2464V30.8057H13.0379H9.39502V30.2464V29.6872L10.0948 29.6019L10.7851 29.526L10.8138 19.9905L10.833 10.4455L10.5262 10.3981L10.4064 10.3781C10.2276 10.348 9.98365 10.3071 9.80724 10.2843L9.39502 10.218ZM36.3232 9.45947C34.3292 10.4832 35.1249 13.4595 37.3873 13.4595C38.068 13.4595 38.5953 13.213 39.0362 12.7107C39.7552 11.8765 39.7552 10.777 39.0267 9.94288C38.3556 9.15615 37.2723 8.96658 36.3232 9.45947ZM43.8105 10.1232V9.65874V9.19429H46.5427H49.2749V19.4218V29.6493L49.5434 29.7061C49.6871 29.7346 49.9843 29.782 50.2144 29.8104L50.6171 29.8768V30.3412V30.8057H47.2138H43.8105V30.3412V29.8768L44.2228 29.8104C44.4433 29.782 44.7404 29.7346 44.8938 29.7061L45.1527 29.6493L45.1335 19.9715L45.1047 10.2843L44.4624 10.199L43.8105 10.1232ZM56.9724 11.6021L55.0263 12.1803V13.8106V15.4504H53.5404H52.0544V16.1613V16.8722H53.4829H54.9208L54.9496 22.6258C54.9876 28.9671 54.9879 28.9677 55.6291 29.8491L55.6494 29.877C56.656 31.2419 59.6662 31.3841 63.2516 30.2277L63.846 30.0286V29.5073V28.986L63.5584 29.0523C63.3954 29.0902 62.7148 29.1187 62.0437 29.1187C60.299 29.1281 59.7429 28.9196 59.3211 28.076L59.1006 27.6305L59.0719 22.2466L59.0431 16.8722H60.8741H62.6956V16.1613V15.4504H60.8741H59.0527V13.2229C59.0527 12.0002 59.0239 10.9954 58.9856 11.0049C58.9376 11.0144 58.0365 11.2798 56.9724 11.6021ZM67.4711 16.7205C68.4777 15.9338 70.2704 15.2229 71.7084 15.0333C71.8905 15.0144 72.6479 15.0049 73.3861 15.0238C75.0445 15.0712 76.0128 15.2892 77.2686 15.8959C78.0068 16.2656 78.3232 16.4836 78.9463 17.1092C79.857 18.0096 80.2597 18.6447 80.6815 19.8864C81.0937 21.0807 81.2375 22.2087 81.1704 23.6968C81.0649 26.0381 80.3459 27.6968 78.8025 29.1281C77.1728 30.6447 74.9295 31.3651 72.1877 31.2419C69.5897 31.1376 67.8737 30.531 66.6275 29.2892C65.5825 28.2466 65.0649 27.1565 64.7485 25.3935C64.528 24.1328 64.6047 21.7727 64.9019 20.711C65.3429 19.1281 66.2919 17.6494 67.4711 16.7205ZM75.8786 18.2466C75.3225 17.0523 74.5556 16.4172 73.434 16.2087C72.8684 16.1044 72.7821 16.1044 72.2165 16.2087C70.395 16.5689 69.3693 18.3888 69.12 21.7537C68.8708 25.1092 69.4651 27.9717 70.6826 29.2039C71.2674 29.8106 71.9576 30.076 72.9067 30.0665C75.5239 30.057 76.6934 27.9148 76.6934 23.166C76.6934 20.7869 76.4825 19.5357 75.8786 18.2466ZM93.1055 15.1753C91.9072 15.327 90.4308 15.981 89.175 16.9194C88.7915 17.2038 88.4272 17.4407 88.3793 17.4407C88.3313 17.4407 88.293 16.9952 88.293 16.4455V15.4502H85.5608H82.8286V15.9621V16.4739L83.2888 16.5308L83.3724 16.5435C83.6051 16.5788 83.8711 16.6192 84.0078 16.6445L84.2666 16.7014V23.1753V29.6493L83.7202 29.7061C83.1941 29.7677 82.9784 29.7929 82.89 29.9123C82.8286 29.9952 82.8286 30.1236 82.8286 30.3412V30.8057H86.2798H89.731V30.3317C89.731 30.0663 89.7022 29.8578 89.6639 29.8483C89.6499 29.8456 89.6141 29.8396 89.5617 29.8309C89.4342 29.8097 89.2088 29.7721 88.9641 29.7251L88.3409 29.6208V24.1232V18.6256L88.8203 18.3128C89.0887 18.1422 89.6447 17.8673 90.0665 17.7061C90.728 17.4407 90.9485 17.4028 91.6963 17.3933C92.6453 17.3933 93.0863 17.5545 93.5848 18.0758C94.3422 18.8625 94.4476 19.7441 94.4093 25.308L94.3805 29.6208L93.7574 29.7251C93.5445 29.766 93.3462 29.7997 93.2165 29.8218C93.1359 29.8355 93.0818 29.8447 93.0671 29.8483C93.0192 29.8578 92.9904 30.0663 92.9904 30.3317V30.8057H96.4416H99.8928V30.3412C99.8928 30.1224 99.8928 29.9938 99.8311 29.9116C99.743 29.7943 99.5293 29.7713 99.0108 29.7156L98.4644 29.6493L98.4357 24.1327C98.4069 18.673 98.3973 18.6161 98.1768 17.9621C97.8796 17.0616 97.592 16.5971 97.0168 16.0853C96.4512 15.5829 95.7322 15.2891 94.7736 15.1659C94.0066 15.0616 93.9395 15.0616 93.1055 15.1753ZM33.9373 16.3791V15.9147V15.4502H36.6694H39.4016V22.5497V29.6587L39.9577 29.7156C40.715 29.7914 40.7821 29.8483 40.8205 30.3696L40.8492 30.8057H37.398H33.9373V30.3317C33.9373 30.0663 33.966 29.8578 34.014 29.8483C34.0286 29.8447 34.0827 29.8355 34.1633 29.8218C34.293 29.7997 34.4913 29.766 34.7042 29.7251L35.3273 29.6208L35.3561 23.109L35.3753 16.6066L35.1164 16.5497C34.9797 16.5244 34.7137 16.484 34.481 16.4487C34.4525 16.4444 34.4246 16.4401 34.3974 16.436L33.9373 16.3791Z"/>
</svg>
