<svg width="182" height="40" viewBox="0 0 182 40" fill="#BABABA" xmlns="http://www.w3.org/2000/svg">
<path d="M74.0703 33.3726C75.5042 33.3726 77.9744 32.9062 79.9167 29.7665C78.8087 27.277 78.0135 22.2522 77.9027 20.4195C77.3292 11.0595 80.9074 2.25114 84.8246 2.00811C87.6989 1.83076 89.9931 4.57638 90.2603 9.01011C90.9643 20.6757 87.1123 25.543 85.183 29.7468C85.5089 31.3758 88.2464 34.1477 90.8339 34.1477C91.792 34.1477 92.9456 33.6682 93.2324 33.2741C93.0369 32.6041 92.8479 31.7305 92.8479 30.4759C92.8479 23.7169 97.1626 18.0155 100.897 18.0155C103.869 18.0155 105.597 21.9763 105.597 24.5905C105.597 27.6777 103.009 30.1934 99.1766 32.6041C99.8479 33.2741 101.093 33.7667 102.149 33.7667C107.611 33.7667 110.472 27.0997 112.59 21.0173C112.975 19.8547 113.646 18.2191 114.982 18.2191C117.283 18.2191 118.247 33.4777 122.067 33.4777C123.703 33.4777 125.039 30.0949 125.039 27.4938C125.039 25.5627 124.368 25.3656 124.368 22.5674C124.368 19.4802 125.997 16.8726 128.207 16.8726C129.549 16.8726 130.031 18.2191 130.031 19.8547C130.031 26.0356 125.619 37.5304 119.108 37.5304C114.213 37.5304 114.598 29.0308 112.87 29.0308C110.948 29.0308 108.262 37.629 98.7855 37.629C97.2473 37.629 95.6179 36.8604 94.2818 35.3103C91.9875 36.8604 90.0648 37.5304 87.8553 37.5304C84.3162 37.5304 82.778 33.8587 81.3441 33.8587C79.6169 33.8587 77.7072 37.629 71.9521 37.629C67.3506 37.629 66.588 31.4546 64.9585 31.4546C63.5181 31.4546 61.3151 37.629 58.9231 37.629C54.8952 37.629 54.0348 26.9092 50.4892 26.9092C47.7127 26.9092 38.9333 37.7932 36.5478 37.5436C35.5897 37.4451 35.1856 36.7225 35.2899 35.757C35.4268 34.4235 36.5674 30.8437 37.0301 29.1556C37.8057 26.2195 38.5162 23.001 38.9137 21.9697C39.3113 20.9319 40.3737 20.1962 41.2275 20.275C41.6577 20.3145 41.788 21.1224 41.9184 21.7924C42.4007 24.1833 43.0786 26.6136 43.8411 26.6136C45.1838 26.6136 49.6354 18.0155 52.2164 18.0155C55.384 18.0155 55.762 31.54 60.0703 31.54C61.5107 31.54 62.5665 29.8059 63.5246 27.6777C63.6224 24.0979 64.5805 18.9942 67.4548 18.9942C69.4688 18.9942 70.4269 23.5264 68.9865 27.4938C68.993 32.2165 72.0563 33.3726 74.0703 33.3726ZM150.725 21.7858C149.539 26.7516 145.935 34.0557 140.564 34.0557C139.319 34.0557 137.116 33.5696 137.116 32.3151C137.116 30.9619 145.557 30.778 145.557 24.3015C145.557 21.8909 143.354 18.5081 140.095 18.5081C135.78 18.5081 131.576 23.244 131.576 29.8125C131.576 35.6978 135.207 37.629 138.843 37.629C145.172 37.629 149.005 32.407 151.012 28.0652C151.977 30.9619 152.544 37.629 154.942 37.629C155.9 37.629 156.572 37.1429 157.725 34.5418C160.593 28.0653 163.37 20.6363 167.209 20.6363C168.642 20.6363 167.782 23.2506 171.23 23.2506C172.853 23.2506 174 21.8974 174 20.3473C174 18.1271 171.993 16.3931 168.929 16.3931C159.922 16.3931 158.012 30.0095 156.572 30.0095C154.173 30.0095 154.942 19.0927 153.215 19.0927C151.683 19.0861 150.934 20.9253 150.725 21.7858ZM87.1644 11.6178C87.0015 8.91814 86.3497 7.70297 84.9093 7.8015C82.9996 7.91973 82.1197 13.9693 82.5108 20.3276C82.7584 24.4789 83.3711 25.116 83.9447 25.0766C85.0005 25.0109 87.5294 17.6017 87.1644 11.6178ZM71.5806 5.94919C71.4437 4.4056 70.2444 3.34807 68.6085 3.34807C66.79 3.34807 65.0759 5.27263 65.2584 7.68983C65.3757 9.27941 66.3077 10.5931 68.1392 10.5931C70.2444 10.5865 71.7696 8.17591 71.5806 5.94919ZM101.386 25.6481C101.386 24.0125 100.519 22.6594 99.4699 22.6594C98.5965 22.6594 96.5956 23.6184 96.5956 26.7121C96.5956 29.1359 97.4494 30.2854 97.8404 30.7715C100.617 29.9044 101.386 27.5792 101.386 25.6481ZM138.843 22.377C140.857 22.377 141.437 24.781 140.955 26.2327C140.473 27.6777 138.752 29.3264 136.067 29.8125C135.493 28.3543 135.207 22.377 138.843 22.377ZM28.5115 15.5129C28.2377 14.6327 27.4425 12.6622 27.2209 11.204C26.7386 7.97885 28.4137 5.85067 29.9519 5.3646C31.6791 4.87853 32.3504 5.75213 33.0152 7.78179C33.8821 10.869 33.9733 14.9217 33.6865 20.7151C33.3085 28.6367 29.3783 38.2004 19.6082 37.9968C11.1743 37.8195 7.43966 32.3151 7.0486 23.914C6.8661 19.9532 7.14636 15.999 8.77579 10.396C9.63613 7.40082 10.4117 6.33016 13.084 5.7587C15.1892 5.37116 15.0002 7.59131 14.5244 10.2056C13.4751 15.999 12.9862 18.7971 13.3773 25.3656C13.7553 32.3151 16.9229 35.0213 20.3708 35.0213C25.5459 35.1198 27.8401 30.778 28.8048 24.492C29.5673 19.4737 28.9938 17.0565 28.5115 15.5129Z"/>
</svg>
