<svg width="81" height="80" viewBox="0 0 81 80" fill="none" xmlns="http://www.w3.org/2000/svg">
<rect x="80.0013" y="24" width="61.0415" height="61.0415" rx="7.22666" transform="rotate(112.85 80.0013 24)" fill="#F4F4F4"/>
<circle cx="18.2629" cy="44.61" r="6.61002" fill="#B3CCFF"/>
<path d="M9.00134 60.3932C9.00134 56.8428 11.8795 53.9646 15.4299 53.9646H20.5728C24.1232 53.9646 27.0013 56.8428 27.0013 60.3932V68.1075H9.00134V60.3932Z" fill="#B3CCFF"/>
<rect x="8.50134" y="6.5" width="42" height="27" rx="2.5" fill="white" stroke="#DDDDDD"/>
<rect x="34.5013" y="40.5" width="42" height="27" rx="2.5" fill="white" stroke="#DDDDDD"/>
<path fill-rule="evenodd" clip-rule="evenodd" d="M4.00134 75V73H5.00134V75H7.00134V76H5.00134V78H4.00134V76H2.00134L2.00134 75H4.00134Z" fill="#FFB700"/>
<path d="M3.00134 22.0638C5.11173 21.8671 12.0923 22.604 16.6035 19.1733C17.9364 17.9927 19.6025 16.517 17.27 15.3365C14.9374 14.156 12.2717 17.4025 11.272 19.7633C10.5603 21.4442 9.81525 25.961 14.4803 25.961C15.6646 25.961 18.3423 23.8951 19.4786 22.0638C20.615 20.2325 21.6018 16.5172 21.935 15.3365C23.2679 17.1072 24.6008 20.0585 25.9337 23.3048C27.3002 26.6331 23.6011 26.2561 22.6015 25.3707C21.6018 24.4853 21.1353 23.3639 25.9337 18.878C27.7997 16.9892 28.2662 16.222 28.9326 15.3365C29.5991 17.6977 30.5276 20.2071 33.7265 20.4432M36.6172 17.4985C38.2833 20.4501 38.9378 33.0685 30.2741 30.7075C21.6104 28.3465 42.6032 13 42.6032 13L41.2618 23.8951C42.2614 20.6487 44.8605 14.392 47.2597 15.3365C50.2587 16.517 47.8877 21.4047 49.0241 23.8951C50.1604 26.3855 51.865 26.3855 53.0013 26.3855" stroke="#0055FF" stroke-width="1.6727"/>
<path d="M42.0013 56.4121C46.1662 57.7372 50.6992 57.3884 54.0331 52.6626C55.6732 50.3377 56.3664 46.225 54.4959 45.2812C52.6254 44.3375 50.331 45.7426 48.9428 49.8946C47.5545 54.0465 49.8294 59.9718 52.6254 60.0078C55.4214 60.0439 56.1997 58.1017 57.2514 56.4121C58.3032 54.7224 59.2165 51.2944 59.5249 50.205C60.7585 51.8388 64.2775 54.5079 65.1394 58.1985C66.0013 61.8892 62.3628 64.1959 60.049 62.3505C57.7352 60.5052 58.7847 57.6116 63.2257 53.4726C64.9528 51.7299 65.3845 51.0221 66.0013 50.205" stroke="#FFB700" stroke-width="1.6727"/>
<path fill-rule="evenodd" clip-rule="evenodd" d="M72.0013 10V8H73.0013V10H75.0013V11H73.0013V13H72.0013V11H70.0013L70.0013 10H72.0013Z" fill="#0055FF"/>
<path fill-rule="evenodd" clip-rule="evenodd" d="M63.0013 6C63.0013 7.10457 62.1059 8 61.0013 8C59.8968 8 59.0013 7.10457 59.0013 6C59.0013 4.89543 59.8968 4 61.0013 4C62.1059 4 63.0013 4.89543 63.0013 6ZM59.9613 6C59.9613 6.57438 60.427 7.04 61.0013 7.04C61.5757 7.04 62.0413 6.57438 62.0413 6C62.0413 5.42562 61.5757 4.96 61.0013 4.96C60.427 4.96 59.9613 5.42562 59.9613 6Z" fill="#FFB700"/>
</svg>
