<svg width="81" height="80" viewBox="0 0 81 80" fill="none" xmlns="http://www.w3.org/2000/svg">
<rect x="38.1398" y="9.30737" width="38.518" height="38.518" rx="4.97394" transform="rotate(74.6192 38.1398 9.30737)" fill="#FAFAFA"/>
<path fill-rule="evenodd" clip-rule="evenodd" d="M30.3638 24.6682L29.3285 28.5209C33.1231 29.4321 36.2859 32.1731 37.6776 36.04L14.4954 42.2516C13.7669 38.2071 15.1356 34.2518 17.9664 31.5654L15.1431 28.7461C15.0382 28.6413 14.9973 28.4885 15.0358 28.3453C15.0743 28.2021 15.1863 28.0903 15.3298 28.0519C15.4732 28.0135 15.6261 28.0543 15.731 28.1591L18.5895 31.0136C19.9011 29.9332 21.477 29.1042 23.2671 28.6245C25.0573 28.1448 26.8366 28.0743 28.5128 28.3546L29.5613 24.4533C29.5998 24.3101 29.712 24.1983 29.8554 24.16C29.9988 24.1216 30.1518 24.1626 30.2567 24.2674C30.3616 24.3723 30.4024 24.5251 30.3638 24.6682ZM19.8771 37.7038C19.277 37.8647 18.66 37.5087 18.4991 36.9085C18.3382 36.3084 18.6942 35.6915 19.2943 35.5306C19.8944 35.3696 20.5114 35.7257 20.6723 36.3258C20.8325 36.9258 20.4767 37.5423 19.8771 37.7038ZM30.7439 34.792C30.1438 34.9529 29.5268 34.5969 29.3659 33.9968C29.205 33.3967 29.561 32.7797 30.1611 32.6188C30.7613 32.4579 31.3782 32.8139 31.5391 33.414C31.6992 34.014 31.3435 34.6304 30.7439 34.792Z" fill="#0055FF"/>
<rect x="55.3121" y="6" width="24.3826" height="24.3826" rx="3.14859" transform="rotate(15 55.3121 6)" fill="#F4F4F4"/>
<path d="M72.4205 16.4602C69.9795 16.1636 67.5351 15.8835 65.0913 15.6267L63.6466 21.0296C64.7351 21.3175 65.8263 21.5953 66.9172 21.8731C68.1825 22.1952 69.4474 22.5172 70.7071 22.8547L72.4205 16.4602Z" fill="#0055FF"/>
<path d="M64.4749 15.5895C62.6491 15.3501 60.8249 15.1191 58.9943 14.9267L58.9906 14.9258L57.7766 19.4567C58.9484 19.7761 60.1236 20.0892 61.2983 20.4022L61.2991 20.4024C61.886 20.5588 62.4732 20.7152 63.0594 20.8723L64.4749 15.5895Z" fill="#0055FF"/>
<path d="M57.6193 20.0437L62.9021 21.4592L61.5755 26.4104C60.4426 25.9207 59.22 25.411 58.0295 24.9146C57.5057 24.6962 56.9879 24.4803 56.4869 24.27L57.6193 20.0437Z" fill="#0055FF"/>
<path d="M70.5326 23.5038L63.4888 21.6164L62.1679 26.5886C63.8764 27.3039 65.7238 28.1249 67.4847 28.9075C67.9695 29.1229 68.4477 29.3355 68.9147 29.5421L70.5326 23.5038Z" fill="#0055FF"/>
<rect x="70.6984" y="47.2731" width="30.7654" height="30.7654" rx="3.97282" transform="rotate(105.143 70.6984 47.2731)" fill="#F2F6FF"/>
<path fill-rule="evenodd" clip-rule="evenodd" d="M57.7729 63.2065C57.686 63.3301 57.6015 63.4652 57.5069 63.5976C56.7317 64.6769 55.7793 65.6142 54.6915 66.3686C54.4795 66.509 54.2563 66.6311 54.0243 66.7338C53.5752 66.9638 53.0622 67.0301 52.5724 66.9215C52.1991 66.8314 51.849 66.6635 51.5445 66.4284C51.3211 66.2598 51.1019 66.0759 50.8722 65.911C50.1513 65.4014 49.265 65.1873 48.3906 65.3113C48.0673 65.3553 47.7427 65.4043 47.4149 65.4253C47.038 65.4591 46.6596 65.3933 46.3167 65.2344C46.0219 65.0839 45.7659 64.8664 45.5687 64.5987C45.3154 64.2704 45.107 63.909 44.949 63.5242C44.1476 61.7534 43.7892 59.808 43.9054 57.8586C43.9436 57.0088 44.0967 56.1675 44.3605 55.3583C44.6604 54.4055 45.189 53.5415 45.899 52.8436C46.7927 51.973 47.9984 51.5094 49.234 51.5611C49.9908 51.585 50.7202 51.8451 51.3223 52.3056L52.3118 53.0223C52.6 53.2356 52.9576 53.3314 53.3139 53.2908L54.5569 53.1615C54.98 53.113 55.4073 53.1232 55.827 53.1917C56.4472 53.3053 57.0369 53.5467 57.5596 53.9008C58.2975 54.3836 58.8602 55.0953 59.164 55.9301L59.1841 55.9954C57.7034 56.433 56.5852 57.6718 56.2895 59.2021C55.992 60.7182 56.5663 62.2686 57.7729 63.2065ZM53.0453 52.1472C53.4169 52.2564 53.8072 52.2869 54.192 52.2368C55.8045 51.9945 57.1298 50.8135 57.5714 49.2253C57.5986 49.1238 57.6272 49.0172 57.6598 48.8954C57.4945 48.8511 57.3346 48.8463 57.1848 48.8442C55.9857 48.7992 54.8226 49.2811 53.9951 50.1657C53.4604 50.6733 53.095 51.3363 52.95 52.0618C52.9437 52.1254 52.9683 52.1538 53.0385 52.1726L53.0453 52.1472Z" fill="#0055FF"/>
<path fill-rule="evenodd" clip-rule="evenodd" d="M12.8013 65.8V63H14.2013V65.8H17.0013V67.2H14.2013V70H12.8013V67.2H10.0013L10.0013 65.8H12.8013Z" fill="#FFB700"/>
<path fill-rule="evenodd" clip-rule="evenodd" d="M49.0013 6.5C49.0013 7.88071 47.8821 9 46.5013 9C45.1206 9 44.0013 7.88071 44.0013 6.5C44.0013 5.11929 45.1206 4 46.5013 4C47.8821 4 49.0013 5.11929 49.0013 6.5ZM45.2013 6.5C45.2013 7.21797 45.7834 7.8 46.5013 7.8C47.2193 7.8 47.8013 7.21797 47.8013 6.5C47.8013 5.78203 47.2193 5.2 46.5013 5.2C45.7834 5.2 45.2013 5.78203 45.2013 6.5Z" fill="#FFB700"/>
</svg>
