<svg width="84" height="84" viewBox="0 0 84 84" fill="none" xmlns="http://www.w3.org/2000/svg">
<rect x="0.949463" y="29.4467" width="61.3481" height="61.3481" rx="9.58156" transform="rotate(-27.6313 0.949463 29.4467)" fill="#F2F6FF"/>
<path fill-rule="evenodd" clip-rule="evenodd" d="M73.0013 14V12H74.0013V14H76.0013V15H74.0013V17H73.0013V15H71.0013V14H73.0013Z" fill="#0055FF"/>
<path fill-rule="evenodd" clip-rule="evenodd" d="M8.00134 77V75H9.00134V77H11.0013V78H9.00134V80H8.00134V78H6.00134V77H8.00134Z" fill="#0055FF"/>
<path d="M24.0014 4C15.307 4.00991 8.26138 11.0556 8.25146 19.75V29.875C8.25146 30.4963 8.75518 31 9.3765 31H13.8764C14.4977 31 15.0015 30.4963 15.0015 29.875V19.75C15.0015 14.7794 19.0309 10.75 24.0014 10.75C28.972 10.75 33.0014 14.7794 33.0014 19.75V29.875C33.0014 30.4963 33.5051 31 34.1264 31H38.6265C39.2478 31 39.7515 30.4963 39.7515 29.875V19.75C39.7415 11.0556 32.6959 4.00991 24.0014 4Z" fill="#A3A3A3"/>
<path d="M38.6264 28.75H9.37634C7.51239 28.75 6.00134 30.261 6.00134 32.125V52.375C6.00134 55.4816 8.51973 58 11.6263 58H36.3763C39.4829 58 42.0013 55.4816 42.0013 52.375V32.125C42.0014 30.261 40.4904 28.75 38.6264 28.75Z" fill="#FFB700"/>
<path d="M27.0411 43.3074C27.9754 42.4622 28.5063 41.2597 28.5013 39.9999C28.5013 37.5147 26.4866 35.4999 24.0013 35.4999C21.516 35.4999 19.5013 37.5147 19.5013 39.9999C19.4964 41.2597 20.0272 42.4622 20.9615 43.3074L19.5575 47.5194C19.3611 48.1089 19.6798 48.7459 20.2693 48.9423C20.3844 48.9806 20.5049 49.0001 20.6262 49H27.3762C27.9975 49.0007 28.5019 48.4977 28.5026 47.8764C28.5027 47.7551 28.4833 47.6346 28.4449 47.5195L27.0411 43.3074Z" fill="white"/>
<rect x="47.5013" y="35.5" width="26" height="34.1" rx="1.5" fill="white" stroke="#DDDDDD"/>
<path d="M54.2041 66.2858C54.0355 66.2858 53.8671 66.1173 53.8671 65.9489C53.8671 65.7803 53.8671 65.4433 54.0357 65.4433C55.2153 64.9378 56.0578 63.9267 56.3948 63.0842L55.0468 62.0732C54.7098 61.7362 54.3727 61.5676 54.0357 61.0621C53.5302 60.2196 53.6987 58.8714 54.5412 58.3659C55.3837 57.6918 56.7319 57.8604 57.4059 58.7029C58.0799 59.377 58.2484 60.388 57.7428 61.9046C57.5743 62.2416 57.5743 62.5787 57.4059 62.9157C57.7428 63.0842 58.2484 63.2526 58.4169 63.2526C58.5855 63.0841 58.9224 62.9157 59.091 62.5785C59.428 62.2416 59.7651 61.736 60.2706 61.736C60.4392 61.736 60.6076 61.736 60.6076 61.9046C60.7762 62.0732 60.7762 62.2416 60.7762 62.2416C60.7762 62.4101 60.7762 62.4101 60.7762 62.5785C60.9447 62.7471 60.9447 62.7471 61.1131 62.9155C61.4501 62.9155 61.7872 62.9155 62.1242 62.5785C62.2928 62.41 62.4612 62.41 62.4612 62.5785C62.6297 62.5785 62.6297 62.7471 62.7981 62.9155C62.9667 63.2525 63.4722 63.5896 63.9778 63.421C64.4833 63.421 65.1574 62.9155 65.4944 62.5785C65.6629 62.41 65.8313 62.41 65.9999 62.5785C66.5054 63.0841 67.1795 63.421 68.022 63.421C68.1906 63.421 68.5276 63.5896 68.5276 63.758C68.5276 63.9266 68.359 64.2635 68.1906 64.2635C67.3481 64.2635 66.5054 64.095 65.8315 63.421C65.326 63.758 64.8204 64.0951 64.1463 64.0951C63.4722 64.2637 62.7983 63.9266 62.2928 63.421C61.7872 63.5896 61.4503 63.758 60.9447 63.5896C60.6078 63.5896 60.2706 63.2526 59.9337 62.9155V62.747C59.7651 62.9155 59.7651 62.9155 59.5967 63.0839C59.2597 63.4209 59.0912 63.758 58.5856 63.9264C57.9115 64.095 57.406 63.9264 56.9005 63.5894C56.3946 64.9376 55.3836 65.9487 54.2041 66.2858ZM55.8891 58.7029C55.5521 58.7029 55.3836 58.7029 55.215 58.8714C54.7095 59.2084 54.5409 60.051 54.878 60.5566C55.0466 60.8935 55.3836 61.0621 55.7205 61.2307L56.9002 62.0732C57.0687 61.7362 57.0687 61.5676 57.0687 61.3991C57.4057 60.2195 57.2373 59.5455 56.9002 59.04C56.5632 58.8713 56.2262 58.7029 55.8891 58.7029Z" fill="#0055FF"/>
<rect x="51.0514" y="41.75" width="18.9" height="1.35" rx="0.675" fill="#DDDDDD"/>
<rect x="51.0514" y="45.8" width="18.9" height="1.35" rx="0.675" fill="#DDDDDD"/>
<rect x="51.0514" y="49.85" width="18.9" height="1.35" rx="0.675" fill="#DDDDDD"/>
<rect x="51.0514" y="53.9" width="18.9" height="1.35" rx="0.675" fill="#DDDDDD"/>
</svg>
