<svg width="81" height="81" viewBox="0 0 81 81" fill="none" xmlns="http://www.w3.org/2000/svg">
<rect x="51.5534" y="-1.31006" width="50.5857" height="50.5857" rx="8.72038" transform="rotate(75 51.5534 -1.31006)" fill="#F2F6FF"/>
<path fill-rule="evenodd" clip-rule="evenodd" d="M67.0013 11V9H68.0013V11H70.0013V12H68.0013V14H67.0013V12H65.0013L65.0013 11H67.0013Z" fill="#0055FF"/>
<path d="M55.8916 56.0882L44.6054 67.1292L15.0334 67.129C13.8445 67.129 12.8704 66.1549 12.8704 64.966V17.034C12.8704 15.8451 13.8445 14.8709 15.0334 14.8709H53.7285C54.9174 14.8709 55.8916 15.8451 55.8916 17.034V56.0882Z" fill="#FAFAFA" stroke="#E8E8E8" stroke-width="0.666667"/>
<path d="M49.422 24.0184H19.3397C18.6159 24.0184 18.0291 24.6052 18.0291 25.3291C18.0291 26.0529 18.6159 26.6397 19.3397 26.6397H49.4221C50.1459 26.6397 50.7327 26.0529 50.7327 25.3291C50.7327 24.6052 50.1459 24.0184 49.422 24.0184Z" fill="#0055FF"/>
<path d="M49.4223 32.0072H19.3399C18.6161 32.0072 18.0293 32.594 18.0293 33.3178C18.0293 34.0417 18.6161 34.6285 19.3399 34.6285H49.4223C50.1461 34.6285 50.7329 34.0417 50.7329 33.3178C50.7329 32.594 50.1461 32.0072 49.4223 32.0072Z" fill="#CED6E0"/>
<path d="M49.4221 39.9957H19.3398C18.616 39.9957 18.0292 40.5825 18.0292 41.3064C18.0292 42.0302 18.616 42.617 19.3398 42.617H49.4221C50.146 42.617 50.7328 42.0302 50.7328 41.3064C50.7328 40.5825 50.146 39.9957 49.4221 39.9957Z" fill="#CED6E0"/>
<path d="M32.1966 48.1094H19.3398C18.616 48.1094 18.0292 48.6962 18.0292 49.42C18.0292 50.1439 18.616 50.7307 19.3398 50.7307H32.1966C32.9204 50.7307 33.5072 50.1439 33.5072 49.42C33.5072 48.6962 32.9204 48.1094 32.1966 48.1094Z" fill="#CED6E0"/>
<path d="M44.7412 67.4624L56.2249 56.2284H44.7412V67.4624Z" fill="#CED6E0"/>
<path d="M17.7794 63.7178C17.6546 63.7178 17.5298 63.593 17.5298 63.4682C17.5298 63.3433 17.5298 63.0937 17.6547 63.0937C18.5285 62.7193 19.1526 61.9703 19.4022 61.3463L18.4036 60.5973C18.154 60.3477 17.9043 60.2229 17.6547 59.8484C17.2802 59.2243 17.4051 58.2257 18.0292 57.8512C18.6532 57.3519 19.6519 57.4767 20.1511 58.1008C20.6504 58.6001 20.7752 59.3491 20.4007 60.4725C20.2759 60.7221 20.2759 60.9718 20.1511 61.2214C20.4007 61.3463 20.7752 61.471 20.9 61.471C21.0249 61.3461 21.2745 61.2214 21.3994 60.9717C21.649 60.7221 21.8987 60.3476 22.2732 60.3476C22.398 60.3476 22.5228 60.3476 22.5228 60.4725C22.6476 60.5973 22.6476 60.7221 22.6476 60.7221C22.6476 60.8469 22.6476 60.8469 22.6476 60.9717C22.7725 61.0965 22.7725 61.0965 22.8972 61.2213C23.1469 61.2213 23.3966 61.2213 23.6462 60.9717C23.771 60.8468 23.8958 60.8468 23.8958 60.9717C24.0207 60.9717 24.0206 61.0965 24.1454 61.2213C24.2703 61.4709 24.6447 61.7206 25.0192 61.5958C25.3937 61.5958 25.893 61.2213 26.1426 60.9717C26.2675 60.8468 26.3922 60.8468 26.5171 60.9717C26.8915 61.3461 27.3909 61.5958 28.0149 61.5958C28.1398 61.5958 28.3894 61.7206 28.3894 61.8454C28.3894 61.9702 28.2645 62.2198 28.1398 62.2198C27.5157 62.2198 26.8915 62.095 26.3923 61.5958C26.0179 61.8454 25.6434 62.0951 25.1441 62.0951C24.6447 62.2199 24.1455 61.9702 23.771 61.5958C23.3966 61.7206 23.147 61.8454 22.7725 61.7206C22.5229 61.7206 22.2732 61.471 22.0236 61.2213V61.0964C21.8987 61.2213 21.8987 61.2213 21.774 61.346C21.5244 61.5956 21.3995 61.8454 21.025 61.9701C20.5257 62.095 20.1512 61.9701 19.7768 61.7205C19.4021 62.7192 18.6531 63.4681 17.7794 63.7178ZM19.0276 58.1008C18.778 58.1008 18.6531 58.1008 18.5283 58.2257C18.1538 58.4753 18.0289 59.0995 18.2786 59.4739C18.4035 59.7235 18.6531 59.8484 18.9027 59.9733L19.7765 60.5973C19.9014 60.3477 19.9014 60.2229 19.9014 60.098C20.151 59.2242 20.0262 58.725 19.7765 58.3505C19.5269 58.2255 19.2773 58.1008 19.0276 58.1008Z" fill="#0055FF"/>
<path d="M44.2385 55.3297C46.2357 54.2063 48.2328 52.9581 50.1051 51.585L71.5747 34.3595C72.823 33.361 73.0726 31.3637 72.074 30.1155C71.0755 28.8672 69.0783 28.6176 67.83 29.6162L46.3604 46.8417C44.613 48.3396 42.9902 50.0871 41.3675 51.8347L44.2385 55.3297Z" fill="#FFB700"/>
<path d="M41.6171 51.5851C39.6199 53.707 37.8724 56.0787 36.3745 58.5751C36.2497 58.7 36.3745 58.9496 36.6241 58.8247C39.3703 57.8262 41.9915 56.7028 44.6128 55.2049L41.6171 51.5851Z" fill="#E8EAE9"/>
<path d="M41.617 51.5851C39.6198 53.707 37.8723 56.0787 36.3744 58.5751C36.2496 58.7 36.3744 58.9496 36.624 58.8247C39.3702 57.8262 41.9915 56.7028 44.6127 55.2049L41.617 51.5851Z" fill="#344A5E"/>
<path d="M49.6056 44.2205L48.4822 45.0941L52.3518 49.8375L53.3503 48.9637L49.6056 44.2205Z" fill="#344A5E"/>
<path d="M68.0794 37.4801L64.0851 32.3622L65.9575 30.7396L70.0766 35.8573L68.0794 37.4801Z" fill="#344A5E"/>
<path d="M61.0894 45.5935C60.8398 45.2191 60.8398 44.7197 61.2143 44.4701L69.203 38.1042L67.7051 36.2318L68.9534 35.2333L70.8257 37.605C71.0753 37.9794 71.0753 38.4787 70.7008 38.7284L62.0881 45.5937C61.8384 45.968 61.339 45.968 61.0894 45.5935Z" fill="#344A5E"/>
<path fill-rule="evenodd" clip-rule="evenodd" d="M2.00134 61V59H3.00134V61H5.00134V62H3.00134V64H2.00134V62H0.00134277L0.00134277 61H2.00134Z" fill="#FFB700"/>
</svg>
