<svg width="600" height="320" viewBox="0 0 600 320" fill="none" xmlns="http://www.w3.org/2000/svg">
<path fill-rule="evenodd" clip-rule="evenodd" d="M433.334 257.501C433.334 258.975 434.528 260.169 436.001 260.169C437.473 260.169 438.667 258.975 438.667 257.501C438.667 256.027 437.473 254.832 436.001 254.832C434.528 254.832 433.334 256.027 433.334 257.501ZM437.334 257.501C437.334 258.238 436.737 258.835 436.001 258.835C435.264 258.835 434.667 258.238 434.667 257.501C434.667 256.764 435.264 256.166 436.001 256.166C436.737 256.166 437.334 256.764 437.334 257.501Z" fill="#E667E6"/>
<path fill-rule="evenodd" clip-rule="evenodd" d="M463.999 142.746C463.999 144.22 465.193 145.414 466.666 145.414C468.139 145.414 469.333 144.22 469.333 142.746C469.333 141.272 468.139 140.077 466.666 140.077C465.193 140.077 463.999 141.272 463.999 142.746ZM467.999 142.746C467.999 143.482 467.402 144.08 466.665 144.08C465.929 144.08 465.332 143.482 465.332 142.746C465.332 142.009 465.929 141.411 466.665 141.411C467.402 141.411 467.999 142.009 467.999 142.746Z" fill="#E667E6"/>
<path fill-rule="evenodd" clip-rule="evenodd" d="M450.668 240.154V237.485H452.001V240.154H454.668V241.488H452.001V244.157H450.668V241.488H448.001L448.001 240.154H450.668Z" fill="#E667E6"/>
<path fill-rule="evenodd" clip-rule="evenodd" d="M150.666 77.3621C150.666 78.836 151.86 80.0308 153.332 80.0308C154.805 80.0308 155.999 78.836 155.999 77.3621C155.999 75.8882 154.805 74.6934 153.332 74.6934C151.86 74.6934 150.666 75.8882 150.666 77.3621ZM154.666 77.3621C154.666 78.099 154.069 78.6964 153.332 78.6964C152.596 78.6964 151.999 78.099 151.999 77.3621C151.999 76.6251 152.596 76.0277 153.332 76.0277C154.069 76.0277 154.666 76.6251 154.666 77.3621Z" fill="#E667E6"/>
<path fill-rule="evenodd" clip-rule="evenodd" d="M420 94.7088C420 96.1827 421.194 97.3775 422.667 97.3775C424.14 97.3775 425.334 96.1827 425.334 94.7088C425.334 93.2349 424.14 92.04 422.667 92.04C421.194 92.04 420 93.2349 420 94.7088ZM424.001 94.7086C424.001 95.4455 423.404 96.0429 422.667 96.0429C421.931 96.0429 421.334 95.4455 421.334 94.7086C421.334 93.9716 421.931 93.3742 422.667 93.3742C423.404 93.3742 424.001 93.9716 424.001 94.7086Z" fill="#E667E6"/>
<path fill-rule="evenodd" clip-rule="evenodd" d="M167.462 60.7257C167.806 61.0703 168.365 61.0703 168.709 60.7257C169.054 60.381 169.054 59.8222 168.709 59.4775L166.838 57.6052C166.494 57.2605 165.935 57.2605 165.591 57.6052C165.247 57.9499 165.247 58.5087 165.591 58.8534L167.462 60.7257ZM173.074 58.8534C173.419 58.5087 173.419 57.9499 173.074 57.6052C172.73 57.2606 172.171 57.2606 171.827 57.6052L169.956 59.4775C169.612 59.8222 169.612 60.381 169.956 60.7257C170.301 61.0704 170.859 61.0704 171.203 60.7257L173.074 58.8534ZM168.71 63.222C169.054 62.8773 169.054 62.3185 168.71 61.9738C168.365 61.6292 167.807 61.6292 167.463 61.9738L165.592 63.8461C165.247 64.1908 165.247 64.7496 165.592 65.0943C165.936 65.439 166.495 65.439 166.839 65.0943L168.71 63.222ZM173.074 65.0943C172.73 65.439 172.171 65.439 171.827 65.0943L169.956 63.222C169.612 62.8773 169.612 62.3185 169.956 61.9738C170.301 61.6292 170.859 61.6292 171.203 61.9738L173.074 63.8461C173.419 64.1908 173.419 64.7496 173.074 65.0943Z" fill="#E667E6"/>
<path fill-rule="evenodd" clip-rule="evenodd" d="M436.796 78.0723C437.141 78.417 437.699 78.417 438.044 78.0723C438.388 77.7277 438.388 77.1688 438.044 76.8242L436.173 74.9519C435.828 74.6072 435.27 74.6072 434.926 74.9519C434.581 75.2965 434.581 75.8554 434.926 76.2001L436.796 78.0723ZM442.408 76.2002C442.752 75.8555 442.752 75.2966 442.408 74.952C442.063 74.6073 441.505 74.6073 441.16 74.952L439.289 76.8242C438.945 77.1689 438.945 77.7278 439.289 78.0724C439.634 78.4171 440.192 78.4171 440.537 78.0724L442.408 76.2002ZM438.043 80.5688C438.387 80.2241 438.387 79.6652 438.043 79.3206C437.699 78.9759 437.14 78.9759 436.796 79.3206L434.925 81.1928C434.581 81.5375 434.581 82.0964 434.925 82.441C435.269 82.7857 435.828 82.7857 436.172 82.441L438.043 80.5688ZM442.408 82.441C442.063 82.7857 441.505 82.7857 441.16 82.441L439.289 80.5688C438.945 80.2241 438.945 79.6652 439.289 79.3206C439.634 78.9759 440.192 78.9759 440.537 79.3206L442.408 81.1928C442.752 81.5375 442.752 82.0964 442.408 82.441Z" fill="#E667E6"/>
<path fill-rule="evenodd" clip-rule="evenodd" d="M145.075 236.323C145.419 235.979 145.419 235.42 145.075 235.075C144.731 234.73 144.172 234.73 143.828 235.075L141.957 236.947C141.612 237.292 141.612 237.851 141.957 238.196C142.301 238.54 142.86 238.54 143.204 238.196L145.075 236.323ZM140.71 240.692C141.055 240.347 141.055 239.788 140.71 239.444C140.366 239.099 139.808 239.099 139.463 239.444L137.592 241.316C137.248 241.661 137.248 242.22 137.592 242.564C137.937 242.909 138.495 242.909 138.84 242.564L140.71 240.692ZM145.075 242.564C144.731 242.909 144.172 242.909 143.828 242.564L141.957 240.692C141.612 240.347 141.612 239.788 141.957 239.444C142.301 239.099 142.86 239.099 143.204 239.444L145.075 241.316C145.419 241.661 145.419 242.22 145.075 242.564ZM139.463 238.196C139.808 238.54 140.366 238.54 140.71 238.196C141.055 237.851 141.055 237.292 140.71 236.948L138.84 235.075C138.495 234.731 137.937 234.731 137.592 235.075C137.248 235.42 137.248 235.979 137.592 236.323L139.463 238.196Z" fill="#E667E6"/>
<path fill-rule="evenodd" clip-rule="evenodd" d="M131.463 160.803C131.807 161.147 132.366 161.147 132.71 160.803C133.055 160.458 133.055 159.899 132.71 159.554L130.839 157.682C130.495 157.337 129.937 157.337 129.592 157.682C129.248 158.027 129.248 158.586 129.592 158.93L131.463 160.803ZM137.075 158.93C137.419 158.586 137.419 158.027 137.075 157.682C136.73 157.337 136.172 157.337 135.827 157.682L133.957 159.554C133.612 159.899 133.612 160.458 133.957 160.803C134.301 161.147 134.859 161.147 135.204 160.803L137.075 158.93ZM132.71 163.299C133.055 162.954 133.055 162.395 132.71 162.051C132.366 161.706 131.807 161.706 131.463 162.051L129.592 163.923C129.248 164.268 129.248 164.827 129.592 165.171C129.936 165.516 130.495 165.516 130.839 165.171L132.71 163.299ZM137.075 165.171C136.73 165.516 136.172 165.516 135.827 165.171L133.957 163.299C133.612 162.954 133.612 162.395 133.957 162.051C134.301 161.706 134.859 161.706 135.204 162.051L137.075 163.923C137.419 164.268 137.419 164.827 137.075 165.171Z" fill="#E667E6"/>
<path fill-rule="evenodd" clip-rule="evenodd" d="M180 89.8844C180 88.8641 180.827 88.0369 181.847 88.0369L264 88.0369L296 120.061V234.303C296 235.324 295.173 236.151 294.152 236.151H181.847C180.827 236.151 180 235.324 180 234.303V89.8844Z" fill="#E667E6"/>
<path opacity="0.3" fill-rule="evenodd" clip-rule="evenodd" d="M263.999 88.0369L295.999 120.062H264.923C264.413 120.062 263.999 119.648 263.999 119.138V88.0369Z" fill="white"/>
<path fill-rule="evenodd" clip-rule="evenodd" d="M304 89.8844C304 88.8641 304.827 88.0369 305.848 88.0369L388 88.0369L420 120.061V234.303C420 235.324 419.173 236.151 418.153 236.151H305.848C304.827 236.151 304 235.324 304 234.303V89.8844Z" fill="#B350B3"/>
<path fill-rule="evenodd" clip-rule="evenodd" d="M334.28 213.425C335.485 213.612 337.002 213.171 338.678 212.277C340.692 211.203 341.768 210.321 341.842 209.728C341.922 209.096 341.958 208.451 341.95 207.794C341.192 207.468 340.546 207.049 340.085 206.545C339.189 205.566 338.975 203.644 339.142 201.287C339.204 200.408 339.324 199.576 339.474 198.997C339.582 198.581 339.7 198.278 339.913 198.009C340.68 197.045 341.94 197.405 342.36 198.363C343.483 200.925 344.209 203.395 344.489 205.778C344.692 205.817 344.9 205.849 345.112 205.874C345.806 205.955 346.455 206.014 347.062 206.049C346.776 205.547 346.61 205.078 346.559 204.636C346.317 202.527 348.118 201.709 350.345 201.896C352.034 202.038 353.831 202.725 354.714 203.697C356.219 205.353 355.217 207.095 352.696 208.06C353.062 208.352 353.458 208.657 353.885 208.974C354.013 209.07 354.99 209.026 355.793 208.773C356.06 208.688 356.34 208.602 356.686 208.496L356.818 208.456C357.1 208.371 357.749 208.174 357.97 208.106C360.359 207.372 361.884 206.783 362.926 206.108C361.99 205.855 361.339 205.578 360.942 205.266C360.031 204.551 359.994 203.307 360.954 202.626C361.368 202.331 361.918 202.178 362.564 202.112C363.835 201.982 365.217 202.207 366.086 202.852C366.589 203.226 366.892 203.675 367.008 204.168C367.158 204.189 367.312 204.21 367.469 204.231C369.128 204.453 370.131 204.46 371.526 204.345C372.347 204.278 372.426 204.272 372.766 204.266C373.953 204.245 375.022 204.483 376.536 205.15L375.463 207.592C374.286 207.074 373.594 206.92 372.813 206.934C372.558 206.939 372.489 206.944 371.744 207.005C370.172 207.135 368.983 207.126 367.116 206.877C366.796 206.834 366.487 206.79 366.192 206.747C366.037 206.94 365.861 207.133 365.667 207.324C364.234 208.729 362.331 209.558 358.752 210.657C358.525 210.727 357.863 210.928 357.586 211.012L357.463 211.049C357.125 211.152 356.853 211.237 356.595 211.318C355.033 211.811 353.33 211.887 352.294 211.116C351.138 210.256 350.162 209.463 349.361 208.728C348.033 208.807 346.536 208.726 344.804 208.525C344.739 208.517 344.674 208.509 344.61 208.501C344.593 209.025 344.553 209.546 344.488 210.062C344.257 211.899 342.768 213.12 339.932 214.632C337.792 215.774 335.78 216.359 333.87 216.062C329.193 215.335 327.071 212.053 327.333 207.754C327.093 207.591 326.839 207.413 326.569 207.221C325.644 206.56 325.234 206.288 324.708 206.008L325.958 203.651C326.56 203.97 327.007 204.261 327.846 204.855C328.597 202.32 330.051 200.336 331.664 200.717C333.673 201.19 335.436 203.259 335.898 205.382C336.485 208.077 334.765 210.013 331.572 209.563C330.999 209.483 330.498 209.368 330.011 209.201C330.236 211.503 331.574 213.004 334.28 213.425ZM351.524 205.646C351.933 205.507 352.239 205.372 352.447 205.259C351.929 204.936 350.992 204.629 350.123 204.556C349.78 204.527 349.487 204.538 349.281 204.576C349.422 204.903 349.764 205.364 350.318 205.941C350.752 205.87 351.154 205.773 351.524 205.646ZM333.294 205.951C333.492 206.858 333.27 207.107 331.945 206.921C331.318 206.832 330.802 206.679 330.215 206.385C330.389 205.603 330.649 204.854 330.963 204.228C331.124 203.905 331.289 203.64 331.434 203.455C332.253 203.865 333.071 204.928 333.294 205.951Z" fill="white"/>
<path opacity="0.3" fill-rule="evenodd" clip-rule="evenodd" d="M388 88.0369L420 120.062H388.924C388.413 120.062 388 119.648 388 119.138V88.0369Z" fill="white"/>
<rect opacity="0.3" x="204" y="145.414" width="68" height="2.66872" fill="white"/>
<rect opacity="0.3" x="328" y="145.414" width="68" height="2.66872" fill="white"/>
<rect opacity="0.3" x="204" y="161.427" width="68" height="2.66872" fill="white"/>
<rect opacity="0.3" x="328" y="161.427" width="68" height="2.66872" fill="white"/>
<rect opacity="0.3" x="204" y="177.439" width="68" height="2.6687" fill="white"/>
<rect opacity="0.3" x="328" y="177.439" width="68" height="2.6687" fill="white"/>
<rect opacity="0.3" x="204" y="193.451" width="68" height="2.66872" fill="white"/>
<rect opacity="0.3" x="328" y="209.464" width="68" height="2.66872" fill="white"/>
<rect opacity="0.3" x="204" y="209.464" width="68" height="2.66872" fill="white"/>
<path fill-rule="evenodd" clip-rule="evenodd" d="M148.889 136.729C148.418 137.151 147.795 137.408 147.112 137.408H141.778V135.629H147.112C147.603 135.629 148.001 135.231 148.001 134.739V108.052C148.001 107.561 147.603 107.163 147.112 107.163H141.778V105.384H147.112C147.795 105.384 148.418 105.641 148.889 106.063C149.361 105.641 149.984 105.384 150.667 105.384H156.001V107.163H150.667C150.176 107.163 149.778 107.561 149.778 108.052V134.739C149.778 135.231 150.176 135.629 150.667 135.629H156.001V137.408H150.667C149.984 137.408 149.361 137.151 148.889 136.729ZM136.696 123.614L133.608 114.391L130.458 123.614H136.696ZM144.445 132.071V130.762L142.083 130.475L135.31 110.721H133.42L126.678 130.347L124.001 130.762V132.071H131.246V130.762L128.191 130.347L129.955 125.114H137.2L138.964 130.379L135.877 130.762V132.071H144.445Z" fill="#E667E6"/>
<path fill-rule="evenodd" clip-rule="evenodd" d="M146.667 189.448C146.667 190.922 147.861 192.117 149.334 192.117C150.807 192.117 152.001 190.922 152.001 189.448C152.001 187.974 150.807 186.78 149.334 186.78C147.861 186.78 146.667 187.974 146.667 189.448ZM150.667 189.448C150.667 190.185 150.07 190.783 149.334 190.783C148.597 190.783 148 190.185 148 189.448C148 188.711 148.597 188.114 149.334 188.114C150.07 188.114 150.667 188.711 150.667 189.448Z" fill="#E667E6"/>
<path fill-rule="evenodd" clip-rule="evenodd" d="M290.711 74.0259H304V75.3603H290.151C289.149 77.5285 288.038 78.7954 286.777 79.1652C285.824 79.4445 285.044 79.2304 284.663 78.5011C284.373 77.9465 284.38 77.1868 284.608 76.266C284.68 75.9765 284.774 75.6728 284.887 75.3603H280V74.0259H285.461C285.978 72.979 286.653 71.9192 287.392 71.0258C287.612 70.7588 287.834 70.5058 288.057 70.2656C289.017 69.231 289.973 68.4474 291.139 67.7442C291.433 66.4059 291.717 65.1636 291.992 64.0169C290.565 64.5582 288.902 65.0197 287.008 65.4014L286.745 64.0933C289.004 63.6379 290.88 63.0836 292.381 62.4306C293.202 59.1688 293.934 56.8195 294.582 55.373C295.806 52.6352 297.416 52.6533 298.114 55.5129C298.937 58.8897 297.361 61.5048 293.523 63.3612C293.256 64.4462 292.978 65.6292 292.69 66.9101C293.079 66.7214 293.492 66.5336 293.934 66.3428C294.511 66.0938 294.804 65.9737 296.213 65.4015C298.124 64.6259 299.293 64.6129 299.174 65.9662C299.124 66.5336 298.764 67.102 297.811 68.3688C297.772 68.4202 297.772 68.4202 297.734 68.4714C297.321 69.0185 297.324 69.0138 297.19 69.1968C296.86 69.6475 296.535 70.0871 296.214 70.516C296.776 70.1864 297.436 69.7903 298.191 69.3279C300.001 68.2211 301.372 67.6593 302.374 67.6593C303.628 67.6593 304.303 68.5191 304.272 69.9119L302.939 69.8825C302.955 69.181 302.808 68.9936 302.374 68.9936C301.686 68.9936 300.501 69.479 298.887 70.4665C297.161 71.522 295.925 72.2402 295.17 72.6258C294.738 72.8464 294.452 72.9668 294.235 73.0018C293.831 73.0667 293.387 72.9121 293.368 72.3324C293.359 72.0815 293.444 71.9289 293.598 71.7397C294.405 70.7083 295.244 69.5978 296.115 68.4082C296.255 68.2174 296.251 68.2226 296.669 67.6675C296.708 67.6168 296.708 67.6168 296.746 67.5661C297.155 67.0217 297.447 66.6065 297.626 66.3138C297.387 66.3816 297.082 66.4887 296.714 66.638C295.316 67.2057 295.026 67.3246 294.462 67.568C293.65 67.9189 292.946 68.2553 292.316 68.605C292.29 68.723 292.264 68.8418 292.238 68.9613C291.756 70.9326 291.249 72.6205 290.711 74.0259ZM289.274 74.0259C289.759 72.8391 290.232 71.3837 290.685 69.6609C290.104 70.1037 289.57 70.5954 289.033 71.1737C288.828 71.3951 288.623 71.6289 288.419 71.8765C287.884 72.5233 287.384 73.2702 286.966 74.0259H289.274ZM288.669 75.3604H286.318C286.139 75.7912 285.997 76.2064 285.903 76.5875C285.746 77.2208 285.742 77.6851 285.845 77.8829C285.891 77.9714 286.002 78.0019 286.402 77.8847C287.16 77.6627 287.924 76.8197 288.669 75.3604ZM296.819 55.8293C296.44 54.2777 296.532 54.2787 295.799 55.9181C295.262 57.1179 294.65 59.0203 293.966 61.6222C296.471 60.1124 297.392 58.1807 296.819 55.8293ZM283.555 68.6886L285.333 70.4677L284.444 71.3573L282.666 69.5782L280.888 71.3573L279.999 70.4677L281.777 68.6886L279.999 66.9094L280.888 66.0199L282.666 67.799L284.444 66.0199L285.333 66.9094L283.555 68.6886Z" fill="#E667E6"/>
<path fill-rule="evenodd" clip-rule="evenodd" d="M473.334 178.409L467.031 172.102L438.667 200.487V206.795H444.97L473.334 178.409ZM446.545 202.064L470.182 178.409L467.03 175.255L443.394 198.91L446.545 202.064ZM444.97 203.641L441.818 200.487L440.895 201.411V204.565H444.047L444.97 203.641Z" fill="#E667E6"/>
<rect x="312" y="182.777" width="9.33333" height="9.34052" fill="white"/>
<rect x="324" y="186.78" width="5.33333" height="1.33436" fill="white"/>
<rect x="317.334" y="194.786" width="5.33745" height="1.33333" transform="rotate(90 317.334 194.786)" fill="white"/>
<rect x="385.333" y="194.786" width="5.33745" height="1.33333" transform="rotate(90 385.333 194.786)" fill="white"/>
<rect x="317.334" y="202.792" width="5.33745" height="1.33333" transform="rotate(90 317.334 202.792)" fill="white"/>
<rect x="385.333" y="202.792" width="5.33745" height="1.33333" transform="rotate(90 385.333 202.792)" fill="white"/>
<rect x="317.334" y="210.798" width="5.33743" height="1.33333" transform="rotate(90 317.334 210.798)" fill="white"/>
<rect x="385.333" y="210.798" width="5.33743" height="1.33333" transform="rotate(90 385.333 210.798)" fill="white"/>
<rect x="324" y="222.807" width="5.33333" height="1.33434" fill="white"/>
<rect x="340.001" y="186.78" width="5.33332" height="1.33436" fill="white"/>
<rect x="340.001" y="222.807" width="5.33332" height="1.33434" fill="white"/>
<rect x="355.999" y="186.78" width="5.33332" height="1.33436" fill="white"/>
<rect x="355.999" y="222.807" width="5.33332" height="1.33434" fill="white"/>
<rect x="332.001" y="186.78" width="5.33333" height="1.33436" fill="white"/>
<rect x="332.001" y="222.807" width="5.33333" height="1.33434" fill="white"/>
<rect x="348.001" y="186.78" width="5.33334" height="1.33436" fill="white"/>
<rect x="348.001" y="222.807" width="5.33334" height="1.33434" fill="white"/>
<rect x="363.999" y="186.78" width="5.33337" height="1.33436" fill="white"/>
<rect x="363.999" y="222.807" width="5.33337" height="1.33434" fill="white"/>
<rect x="372" y="186.78" width="5.33332" height="1.33436" fill="white"/>
<rect x="372" y="222.807" width="5.33332" height="1.33434" fill="white"/>
<rect x="312" y="218.804" width="9.33333" height="9.34052" fill="white"/>
<rect x="380" y="182.777" width="9.33333" height="9.34052" fill="white"/>
<rect x="380" y="218.804" width="9.33333" height="9.34052" fill="white"/>
</svg>
