<svg width="85" height="83" viewBox="0 0 85 83" fill="none" xmlns="http://www.w3.org/2000/svg">
<rect x="84.5854" y="25.418" width="61.0415" height="61.0415" rx="8.72038" transform="rotate(112.85 84.5854 25.418)" fill="#F4F4F4"/>
<path fill-rule="evenodd" clip-rule="evenodd" d="M67.0013 6C67.0013 7.65685 65.6582 9 64.0013 9C62.3445 9 61.0013 7.65685 61.0013 6C61.0013 4.34315 62.3445 3 64.0013 3C65.6582 3 67.0013 4.34315 67.0013 6ZM62.4413 6C62.4413 6.86156 63.1398 7.56 64.0013 7.56C64.8629 7.56 65.5613 6.86156 65.5613 6C65.5613 5.13844 64.8629 4.44 64.0013 4.44C63.1398 4.44 62.4413 5.13844 62.4413 6Z" fill="#FFB700"/>
<path d="M56.8126 25.7212C56.8141 25.6681 56.8141 25.6154 56.8141 25.5624C56.8157 22.2084 55.6311 18.9619 53.4697 16.3972C51.3083 13.8325 48.3095 12.1148 45.0038 11.548C41.698 10.9813 38.2983 11.6019 35.4061 13.3002C32.5138 14.9985 30.3154 17.665 29.1997 20.828C28.2653 20.6 27.307 20.4847 26.3453 20.4843C23.9873 20.4954 21.6825 21.1864 19.7072 22.4742C17.732 23.7621 16.17 25.5923 15.2086 27.7454C11.9184 28.2486 8.93964 29.9759 6.86859 32.5815C4.79754 35.1871 3.78704 38.4789 4.03936 41.7977C4.29168 45.1166 5.7882 48.2177 8.22935 50.4803C10.6705 52.7429 13.8762 54 17.2046 54H54.7828C58.3771 54.0017 61.8384 52.6415 64.4699 50.1933C67.1014 47.745 68.7075 44.3907 68.9649 40.8057C69.2222 37.2207 68.1116 33.6713 65.8567 30.8724C63.6018 28.0734 60.3702 26.2328 56.8126 25.7212Z" fill="#B3CCFF"/>
<path fill-rule="evenodd" clip-rule="evenodd" d="M38.3763 44.5L31.1888 51.6875L30.2513 50.5938L39.0013 42L47.7513 50.5938L46.8138 51.6875L39.6263 44.5V62H38.3763V44.5Z" fill="#0055FF"/>
<path fill-rule="evenodd" clip-rule="evenodd" d="M14.3763 60.5L7.18884 67.6875L6.25134 66.5938L15.0013 58L23.7513 66.5938L22.8138 67.6875L15.6263 60.5L15.6263 78H14.3763L14.3763 60.5Z" fill="#0055FF"/>
<rect x="59.5013" y="40.5" width="19" height="26" rx="1.5" fill="white" stroke="#DDDDDD"/>
<rect x="64.5013" y="45.5" width="19" height="25" rx="1.5" fill="white" stroke="#DDDDDD"/>
<path d="M69.3367 68.1747C69.2119 68.1747 69.0871 68.0499 69.0871 67.9251C69.0871 67.8003 69.0871 67.5507 69.212 67.5507C70.0858 67.1762 70.7098 66.4272 70.9595 65.8032L69.9609 65.0542C69.7113 64.8046 69.4616 64.6798 69.212 64.3053C68.8375 63.6812 68.9624 62.6826 69.5864 62.3081C70.2105 61.8088 71.2092 61.9336 71.7084 62.5577C72.2077 63.057 72.3325 63.806 71.958 64.9294C71.8331 65.179 71.8331 65.4287 71.7084 65.6783C71.958 65.8032 72.3325 65.9279 72.4573 65.9279C72.5822 65.8031 72.8318 65.6783 72.9567 65.4286C73.2063 65.179 73.456 64.8045 73.8305 64.8045C73.9553 64.8045 74.0801 64.8045 74.0801 64.9294C74.2049 65.0542 74.2049 65.179 74.2049 65.179C74.2049 65.3038 74.2049 65.3038 74.2049 65.4286C74.3298 65.5534 74.3298 65.5534 74.4545 65.6782C74.7041 65.6782 74.9539 65.6782 75.2035 65.4286C75.3283 65.3037 75.4531 65.3037 75.4531 65.4286C75.5779 65.4286 75.5779 65.5534 75.7027 65.6782C75.8275 65.9278 76.202 66.1775 76.5765 66.0527C76.9509 66.0527 77.4503 65.6782 77.6999 65.4286C77.8247 65.3037 77.9495 65.3037 78.0743 65.4286C78.4488 65.8031 78.9481 66.0527 79.5722 66.0527C79.6971 66.0527 79.9467 66.1775 79.9467 66.3023C79.9467 66.4271 79.8218 66.6767 79.6971 66.6767C79.073 66.6767 78.4488 66.5519 77.9496 66.0527C77.5751 66.3023 77.2007 66.552 76.7013 66.552C76.202 66.6769 75.7028 66.4271 75.3283 66.0527C74.9539 66.1775 74.7042 66.3023 74.3298 66.1775C74.0802 66.1775 73.8305 65.9279 73.5808 65.6782V65.5533C73.456 65.6782 73.456 65.6782 73.3312 65.8029C73.0816 66.0525 72.9568 66.3023 72.5823 66.427C72.083 66.5519 71.7085 66.427 71.334 66.1774C70.9593 67.1761 70.2104 67.925 69.3367 68.1747ZM70.5849 62.5577C70.3353 62.5577 70.2104 62.5577 70.0855 62.6826C69.7111 62.9322 69.5862 63.5564 69.8359 63.9308C69.9608 64.1804 70.2104 64.3053 70.46 64.4302L71.3338 65.0542C71.4587 64.8046 71.4587 64.6798 71.4587 64.5549C71.7083 63.6811 71.5835 63.1819 71.3338 62.8074C71.0842 62.6825 70.8346 62.5577 70.5849 62.5577Z" fill="#0055FF"/>
<rect x="67.0013" y="50" width="14" height="1" rx="0.5" fill="#DDDDDD"/>
<rect x="67.0013" y="53" width="14" height="1" rx="0.5" fill="#DDDDDD"/>
<rect x="67.0013" y="56" width="14" height="1" rx="0.5" fill="#DDDDDD"/>
<rect x="67.0013" y="59" width="14" height="1" rx="0.5" fill="#DDDDDD"/>
<path fill-rule="evenodd" clip-rule="evenodd" d="M76.8013 11.8V9H78.2013V11.8H81.0013V13.2H78.2013V16H76.8013V13.2H74.0013L74.0013 11.8H76.8013Z" fill="#FFB700"/>
</svg>
