<svg xmlns="http://www.w3.org/2000/svg" fill="none" viewBox="0 0 32 32"><defs/><path fill="#BABABA" d="M16.5 2a8.322 8.322 0 00-8.313 8.313v5.343c0 .328.266.594.594.594h2.375a.594.594 0 00.594-.594v-5.344a4.75 4.75 0 119.5 0v5.344c0 .328.266.594.594.594h2.375a.594.594 0 00.593-.594v-5.344A8.322 8.322 0 0016.5 2z"/><path fill="#FFB700" d="M24.219 15.063H8.78c-.984 0-1.781.797-1.781 1.78v10.688c0 1.64 1.33 2.969 2.969 2.969H23.03c1.64 0 2.969-1.33 2.969-2.969V16.844c0-.984-.797-1.782-1.781-1.782z"/><path fill="#fff" d="M18.103 22.746c.493-.446.774-1.081.771-1.746a2.375 2.375 0 00-4.75 0c-.003.665.278 1.3.77 1.746l-.74 2.223a.594.594 0 00.564.781h3.562a.594.594 0 00.564-.781l-.74-2.223z"/></svg>