<svg xmlns="http://www.w3.org/2000/svg" fill="none" viewBox="0 0 32 32"><defs/><g clip-path="url(#clip0)"><path fill="#FFB700" d="M16.326 15.28c1.824 0 3.404-.655 4.694-1.946 1.291-1.29 1.945-2.87 1.945-4.694 0-1.824-.654-3.404-1.945-4.695C19.73 2.655 18.15 2 16.326 2c-1.825 0-3.404.654-4.695 1.945-1.29 1.29-1.945 2.87-1.945 4.695 0 1.824.654 3.404 1.945 4.694 1.291 1.291 2.87 1.946 4.695 1.946zM27.944 23.198a16.427 16.427 0 00-.223-1.742 13.731 13.731 0 00-.428-1.75 8.65 8.65 0 00-.72-1.634 6.163 6.163 0 00-1.086-1.415 4.787 4.787 0 00-1.56-.98 5.39 5.39 0 00-1.99-.36c-.282 0-.554.115-1.08.457-.323.211-.702.455-1.124.725-.361.23-.85.446-1.455.64-.59.192-1.188.288-1.779.288-.59 0-1.189-.096-1.779-.287-.604-.195-1.093-.41-1.454-.64-.418-.268-.796-.512-1.125-.726-.525-.342-.797-.458-1.079-.458-.716 0-1.386.122-1.99.361-.606.24-1.131.57-1.56.98-.41.392-.775.868-1.085 1.415a8.664 8.664 0 00-.72 1.633 13.752 13.752 0 00-.429 1.752 16.34 16.34 0 00-.223 1.742A23.626 23.626 0 005 24.827c0 1.439.457 2.604 1.36 3.463.89.848 2.07 1.278 3.503 1.278h13.274c1.434 0 2.612-.43 3.503-1.278.902-.858 1.36-2.024 1.36-3.463 0-.556-.019-1.104-.056-1.629z"/><mask id="a" width="16" height="16" x="17" y="17" fill="#000" maskUnits="userSpaceOnUse"><path fill="#fff" d="M17 17h16v16H17z"/><path fill-rule="evenodd" d="M26.09 19H23.91v4.909H19v2.182h4.909V31h2.182v-4.91H31V23.91h-4.91V19z" clip-rule="evenodd"/></mask><path fill="#BABABA" fill-rule="evenodd" d="M26.09 19H23.91v4.909H19v2.182h4.909V31h2.182v-4.91H31V23.91h-4.91V19z" clip-rule="evenodd"/><path fill="#fff" d="M23.909 19v-2h-2v2h2zm2.182 0h2v-2h-2v2zm-2.182 4.909v2h2v-2h-2zm-4.909 0v-2h-2v2h2zm0 2.182h-2v2h2v-2zm4.909 0h2v-2h-2v2zm0 4.909h-2v2h2v-2zm2.182 0v2h2v-2h-2zm0-4.91v-2h-2v2h2zm4.909 0v2h2v-2h-2zm0-2.181h2v-2h-2v2zm-4.91 0h-2v2h2v-2zM23.91 21h2.182v-4h-2.182v4zm2 2.909V19h-4v4.909h4zm-6.909 2h4.909v-4H19v4zm2 .182v-2.182h-4v2.182h4zm2.909-2H19v4h4.909v-4zm2 6.909v-4.91h-4V31h4zm.182-2h-2.182v4h2.182v-4zm-2-2.91V31h4v-4.91h-4zm6.909-2h-4.91v4H31v-4zm-2-.181v2.182h4v-2.182h-4zm-2.91 2H31v-4h-4.91v4zm-2-6.909v4.909h4V19h-4z" mask="url(#a)"/></g><defs><clipPath id="clip0"><path fill="#fff" d="M0 0h32v32H0z"/></clipPath></defs></svg>